<?xml version="1.0" encoding="UTF-8" standalone="no"?>
<svg
   class="snowflake rotate"
   viewBox="0 0 1250.668 1083.1094"
   title="Snowflake"
   version="1.1"
   id="svg110"
   sodipodi:docname="98_209,276_160,420_124.svg"
   width="1250.668"
   height="1083.1094"
   inkscape:version="1.1.1 (3bf5ae0d25, 2021-09-20, custom)"
   xmlns:inkscape="http://www.inkscape.org/namespaces/inkscape"
   xmlns:sodipodi="http://sodipodi.sourceforge.net/DTD/sodipodi-0.dtd"
   xmlns="http://www.w3.org/2000/svg"
   xmlns:svg="http://www.w3.org/2000/svg">
  <defs
     id="defs114" />
  <sodipodi:namedview
     id="namedview112"
     pagecolor="#ffffff"
     bordercolor="#666666"
     borderopacity="1.0"
     inkscape:pageshadow="2"
     inkscape:pageopacity="0.0"
     inkscape:pagecheckerboard="0"
     showgrid="false"
     fit-margin-top="0"
     fit-margin-left="0"
     fit-margin-right="0"
     fit-margin-bottom="0"
     inkscape:zoom="0.4365"
     inkscape:cx="625.42955"
     inkscape:cy="542.95533"
     inkscape:window-width="2560"
     inkscape:window-height="1411"
     inkscape:window-x="0"
     inkscape:window-y="0"
     inkscape:window-maximized="1"
     inkscape:current-layer="svg110" />
  <path
     id="path2"
     d="m 312.66796,0 -21.84179,44.17188 39.50781,68.42969 -24.16406,-6.47461 -37.01367,32.52929 15.79101,46.67774 103.3711,27.69922 14.01757,24.27734 -58.93945,-15.79297 -37.01172,32.5293 15.78906,46.67578 138.14454,37.01562 31.01757,53.72461 -76.64648,-20.53711 -6.14844,-6.14843 -9.61914,1.92382 -13.85547,-3.71289 -9.55078,8.39453 -15.29492,3.0586 -2.51953,12.5957 -9.64844,8.48047 4.99805,14.77344 -2.49414,12.4707 10.14453,10.14453 3.14258,9.28711 8.39453,2.25 56.11132,56.11133 H 366.31836 L 265.1875,399.42578 l -48.31836,9.66407 -9.66407,48.31836 43.14649,43.14648 h -28.0332 l -75.67383,-75.67188 -48.32032,9.66211 -9.66211,48.32032 17.68946,17.68945 H 27.33398 l -27.33398,41 27.33398,41 h 79.01758 l -17.68946,17.6895 9.66211,48.3203 48.32032,9.6621 75.67383,-75.6719 h 28.0332 l -43.14649,43.1465 9.66407,48.3183 48.31836,9.6641 101.13086,-101.1289 h 62.03124 l -56.11132,56.1113 -8.39453,2.25 -3.14063,9.2852 -10.14648,10.1465 2.49414,12.4707 -4.99805,14.7754 9.64844,8.4785 2.51953,12.5957 15.29297,3.0586 9.55273,8.3945 13.85547,-3.7129 9.61914,1.9238 6.14844,-6.1484 76.64648,-20.5371 -31.01757,53.7246 -138.14454,37.0156 -15.78906,46.6758 37.01172,32.5293 58.93945,-15.793 -14.01757,24.2774 -103.3711,27.6992 -15.79101,46.6777 37.01367,32.5293 24.16406,-6.4746 -39.50781,68.42971 21.84179,44.1719 49.17383,-3.1719 39.50781,-68.4297 6.47461,24.1641 46.67774,15.791 32.5293,-37.0137 -27.69727,-103.37111 14.01562,-24.2773 15.79297,58.9375 46.67774,15.7891 32.52734,-37.0137 -37.01562,-138.1426 31.01757,-53.7226 20.53907,76.6484 -2.25,8.3945 6.4707,7.3633 3.71484,13.8613 12.04688,4.0762 10.29492,11.7129 12.16797,-4.1152 12.168,4.1152 10.2949,-11.7129 12.0469,-4.0762 3.7148,-13.8613 6.4707,-7.3633 -2.25,-8.3945 20.5391,-76.6484 31.0176,53.7226 -37.0157,138.1426 32.5274,37.0137 46.6777,-15.7891 15.793,-58.9375 14.0156,24.2773 -27.6973,103.37111 32.5293,37.0137 46.6778,-15.791 6.4746,-24.1641 39.5078,68.4297 49.1738,3.1719 21.8418,-44.1719 -39.5078,-68.42971 24.1641,6.4746 37.0136,-32.5293 -15.791,-46.6777 -103.3711,-27.6973 -14.0156,-24.2773 58.9355,15.791 37.0137,-32.5293 -15.789,-46.6758 -138.1446,-37.0156 -31.0176,-53.7246 76.6485,20.5371 6.1484,6.1484 9.6172,-1.9238 13.8555,3.7129 9.5508,-8.3945 15.2949,-3.0586 2.5195,-12.5957 9.6484,-8.4805 -4.998,-14.7734 2.4941,-12.4707 -10.1445,-10.1446 -3.1426,-9.2871 -8.3945,-2.25 -56.1113,-56.1113 h 62.0312 l 101.1309,101.1289 48.31832,-9.6641 9.6641,-48.3183 -43.1465,-43.1465 h 28.0332 l 75.6739,75.6719 48.3203,-9.6621 9.6621,-48.3203 -17.6895,-17.6895 h 79.0176 l 27.334,-41 -27.334,-41 h -79.0176 l 17.6895,-17.68945 -9.6621,-48.32032 -48.3203,-9.66211 -75.6739,75.67188 h -28.0332 l 43.1465,-43.14648 -9.6641,-48.31836 -48.31832,-9.66407 -101.1309,101.12891 h -62.0312 l 56.1113,-56.11133 8.3945,-2.25 3.1426,-9.28711 10.1445,-10.14453 -2.4941,-12.4707 4.998,-14.77344 -9.6484,-8.48047 -2.5195,-12.5957 -15.2949,-3.0586 -9.5508,-8.39453 -13.8555,3.71289 -9.6191,-1.92382 -6.1485,6.14843 -76.6465,20.53711 31.0176,-53.72461 138.1446,-37.01562 15.789,-46.67578 -37.0137,-32.5293 -58.9355,15.79102 14.0156,-24.27735 103.3711,-27.69726 15.791,-46.67774 -37.0136,-32.52929 -24.1641,6.47461 39.5078,-68.42969 L 937.99998,0 l -49.1738,3.17188 -39.5078,68.42969 -6.4746,-24.16407 -46.6778,-15.79101 -32.5293,37.01367 27.6973,103.37109 -14.0156,24.27735 -15.793,-58.9375 -46.6777,-15.78907 -32.5274,37.01368 37.0157,138.14257 -31.0176,53.72266 -20.5391,-76.64844 2.25,-8.39453 -6.4707,-7.36328 -3.7148,-13.86133 -12.0469,-4.07617 -10.2949,-11.71289 -12.168,4.11523 -12.16797,-4.11523 -10.29492,11.71289 -12.04688,4.07617 -3.71484,13.86133 -6.4707,7.36328 2.25,8.39453 L 562.3496,350.46094 531.33203,296.73828 568.34765,158.59571 535.82031,121.58203 489.14257,137.3711 473.3496,196.3086 459.33398,172.03125 487.03125,68.66016 454.50195,31.64649 407.82421,47.4375 401.3496,71.60157 361.84179,3.17188 Z m 287.3379,497.6836 h 50.65622 l 25.3281,43.87109 -25.3281,43.8711 h -50.65622 l -25.32813,-43.8711 z"
     style="fill:#fb6c5b;fill-opacity:1" />
</svg>
