<?xml version="1.0" encoding="UTF-8" standalone="no"?>
<svg
   class="snowflake false"
   viewBox="0 0 1446.668 1339.2344"
   title="Snowflake"
   version="1.1"
   id="svg158"
   width="1446.668"
   height="1339.2344"
   xmlns="http://www.w3.org/2000/svg"
   xmlns:svg="http://www.w3.org/2000/svg">
  <defs
     id="defs162" />
  <path
     id="path2"
     d="M 604.8125,0 563.25781,14.05664 549.06836,67.01172 548.26562,67.28321 506.88476,221.7168 405.44336,46.01563 361.66796,43.19141 342.2246,82.51563 443.66601,258.2168 289.23046,216.83594 l -0.63671,0.56055 -52.95508,-14.18946 -32.95117,28.95899 14.05859,41.55469 279.03711,74.76757 26.88281,46.56055 -68.4668,-18.3457 -32.55664,28.61133 -78.13867,-20.9375 -32.95117,28.95703 7.55078,22.32422 -23.10742,4.62109 -8.60352,43.01562 57.20118,57.20118 -8.5,42.5 50.12304,50.12109 h -53.76562 l -204.26758,-204.26953 -43.01563,8.60351 -8.60351,43.01563 38.76367,38.76367 -0.16602,0.83399 113.05469,113.05273 H 24.33398 L 0,669.61719 l 24.33398,36.5 h 202.88281 l -113.05469,113.0527 0.16602,0.834 -38.76367,38.7637 8.60351,43.0156 43.01563,8.6035 204.26758,-204.2695 h 53.76562 l -50.12304,50.1211 8.5,42.5 -57.20118,57.2012 8.60352,43.0156 23.10742,4.6211 -7.55078,22.3242 32.95117,28.957 78.13867,-20.9375 32.55664,28.6114 68.4668,-18.3457 -26.88281,46.5605 -279.03711,74.76761 -14.05859,41.5547 32.95117,28.959 52.95508,-14.1895 0.63671,0.5605 154.43555,-41.3808 -101.44141,175.7012 19.44336,39.3242 43.7754,-2.8242 101.4414,-175.7012 41.38086,154.4336 0.80274,0.2715 14.18945,52.955 41.55469,14.0567 28.95898,-32.9512 -74.76758,-279.0371 26.88086,-46.56051 18.3457,68.46681 41.05469,13.8886 20.9375,78.1407 41.55469,14.0566 15.55664,-17.7012 15.5566,17.7012 41.5547,-14.0566 20.9375,-78.1426 41.0547,-13.8867 18.3457,-68.46681 26.8809,46.56051 -74.7676,279.0371 28.959,32.9512 41.5547,-14.0567 14.1894,-52.955 0.8028,-0.2715 41.3808,-154.4336 101.44142,175.7012 43.7754,2.8242 19.4434,-39.3242 -101.4414,-175.7012 154.4355,41.3808 0.6367,-0.5605 52.9551,14.1895 32.9512,-28.959 -14.0586,-41.5547 -279.03712,-74.76761 -26.8828,-46.5586 68.4668,18.3438 32.55662,-28.6114 78.1387,20.9375 32.9511,-28.957 -7.5507,-22.3242 23.1074,-4.6211 8.6035,-43.0156 -57.2012,-57.2012 8.5,-42.5 -50.123,-50.1211 h 53.7656 l 204.2676,204.2695 43.0156,-8.6035 8.6035,-43.0156 -38.7636,-38.7637 0.166,-0.834 -113.0547,-113.0527 h 202.8828 l 24.334,-36.5 -24.334,-36.5 h -202.8828 l 113.0547,-113.05273 -0.166,-0.83399 38.7636,-38.76367 -8.6035,-43.01563 -43.0156,-8.60351 -204.2676,204.26953 h -53.7656 l 50.123,-50.12109 -8.5,-42.5 57.2012,-57.20118 -8.6035,-43.01562 -23.1074,-4.62109 7.5507,-22.32422 -32.9511,-28.95703 -78.1387,20.9375 -32.55662,-28.61133 -68.4668,18.3457 26.8828,-46.56055 279.03712,-74.76757 14.0586,-41.55469 -32.9512,-28.95899 -52.9551,14.18946 -0.6367,-0.56055 L 1003.002,258.2168 1104.4434,82.51563 1085,43.19141 1041.2246,46.01563 939.78318,221.7168 898.40238,67.28321 897.59958,67.01172 883.41018,14.05664 841.85548,0 l -28.959,32.95117 74.7676,279.03711 -26.8809,46.56055 -18.3457,-68.4668 -41.0547,-13.88672 -20.9375,-78.14257 -41.5547,-14.05664 -15.5566,17.70117 -15.55664,-17.70117 -41.55469,14.05664 -20.9375,78.14062 -41.05469,13.88867 -18.3457,68.4668 -26.88086,-46.56055 74.76758,-279.03711 z m 118.52148,266.96485 51.9316,193.8125 H 671.40234 Z m -348.70703,201.32617 193.8125,51.93359 -51.93164,89.94727 z m 697.41405,0 -141.88082,141.88281 -51.9317,-89.94922 z m -427.13475,65.48633 h 156.85543 l 78.4258,135.83984 -78.4258,135.8398 H 644.90625 l -78.42579,-135.8398 z m -128.39844,195.28324 51.93359,89.9492 -193.81445,51.9336 z m 413.65237,0 141.88082,141.8809 -193.81252,-51.9336 z m -258.75784,149.3964 h 103.86324 l -51.9316,193.81251 z"
     style="fill:#57badb;fill-opacity:1" />
</svg>
