<?xml version="1.0" encoding="UTF-8" standalone="no"?>
<svg
   class="snowflake rotate"
   viewBox="0 0 1547.8008 1340.4395"
   title="Snowflake"
   version="1.1"
   id="svg218"
   sodipodi:docname="snowflake-0.svg"
   width="1547.8008"
   height="1340.4395"
   inkscape:version="1.1.1 (3bf5ae0d25, 2021-09-20, custom)"
   xmlns:inkscape="http://www.inkscape.org/namespaces/inkscape"
   xmlns:sodipodi="http://sodipodi.sourceforge.net/DTD/sodipodi-0.dtd"
   xmlns="http://www.w3.org/2000/svg"
   xmlns:svg="http://www.w3.org/2000/svg">
  <defs
     id="defs222" />
  <sodipodi:namedview
     id="namedview220"
     pagecolor="#ffffff"
     bordercolor="#666666"
     borderopacity="1.0"
     inkscape:pageshadow="2"
     inkscape:pageopacity="0.0"
     inkscape:pagecheckerboard="0"
     showgrid="false"
     fit-margin-top="0"
     fit-margin-left="0"
     fit-margin-right="0"
     fit-margin-bottom="0"
     inkscape:zoom="0.4365"
     inkscape:cx="1069.874"
     inkscape:cy="762.8866"
     inkscape:window-width="2560"
     inkscape:window-height="1411"
     inkscape:window-x="0"
     inkscape:window-y="0"
     inkscape:window-maximized="1"
     inkscape:current-layer="svg218" />
  <path
     id="path1653"
     style="color:#000000;fill:#000000;stroke-width:37;-inkscape-stroke:none"
     d="m 386.94922,0 -22.37304,45.25 114.25,197.88867 -98.57813,-26.41406 -37.91601,33.32226 16.17578,47.81641 179.71289,48.1543 36.60547,63.39843 -212.61719,-56.9707 -37.91602,33.32227 10.45508,30.90625 -31.99414,6.39843 -9.90039,49.49805 155.65039,155.64841 h -73.20508 l -131.56445,-131.56247 -49.49805,9.89847 -9.89844,49.5 72.16602,72.164 H 28 l -28,42 28,42 h 228.50196 l -72.16407,72.16604 9.89844,49.5 49.49805,9.8965 131.5625,-131.56254 h 73.20508 l -155.64844,155.64854 9.90039,49.5 31.99219,6.3965 -10.45313,30.9082 37.91602,33.3203 212.61719,-56.9707 -36.60352,63.4004 -179.71484,48.15424 -16.17578,47.8165 37.91601,33.3203 98.57813,-26.4121 -114.25,197.8886 22.37304,45.25 50.37305,-3.25 114.25195,-197.8925 26.41602,98.5839 47.81445,16.1739 33.32227,-37.916 -48.1543,-179.7208 36.60156,-63.39644 56.97266,212.62114 47.8164,16.1757 21.53708,-24.5097 21.5371,24.5097 47.81644,-16.1757 56.9747,-212.62114 36.6035,63.39644 -48.1582,179.7208 33.3222,37.916 47.8164,-16.1739 26.4161,-98.5839 114.25,197.8925 50.375,3.25 22.3711,-45.25 -114.25,-197.8886 98.5781,26.4121 37.9179,-33.3203 -16.1757,-47.8165 -179.7129,-48.15424 -36.6074,-63.4004 212.6171,56.9707 37.92,-33.3203 -10.4571,-30.9082 31.9942,-6.3965 9.9004,-49.5 -155.6504,-155.64854 h 73.205 l 131.5626,131.56254 49.5,-9.8965 9.8964,-49.5 -72.164,-72.16604 h 228.5019 l 28,-42 -28,-42 h -228.5019 l 72.164,-72.164 -9.8964,-49.5 -49.5,-9.89847 -131.5626,131.56247 h -73.205 l 155.6504,-155.64841 -9.9004,-49.49805 -31.9942,-6.39843 10.4571,-30.90625 -37.92,-33.32227 -212.6171,56.9707 36.6035,-63.39843 179.7168,-48.1543 16.1757,-47.81641 -37.9179,-33.32226 -98.5781,26.41406 L 1183.2247,45.25 1160.8536,0 l -50.375,3.25 -114.25,197.89258 -26.4161,-98.58399 -47.8164,-16.17578 -33.3222,37.91602 48.1543,179.7207 -36.5996,63.39844 -56.9747,-212.6211 -47.81644,-16.17578 -21.5371,24.50781 -21.53903,-24.50781 -47.81445,16.17578 -56.97266,212.6211 -36.60351,-63.39844 48.15625,-179.7207 -33.32227,-37.91602 -47.81445,16.17578 -26.41602,98.58399 L 437.32227,3.25 Z m 11.11719,19.25586 28.18555,1.81836 131.63476,227.99609 35.41211,-132.16016 26.75391,-9.05078 18.64258,21.21485 -47.57618,177.55859 62.76758,108.71484 65.9668,-246.19921 26.75391,-9.05079 18.64643,21.21485 -37.08003,138.375 7.94336,-9.03906 26.75777,9.05078 11.0254,41.15429 11.0274,-41.15429 26.7539,-9.05078 7.94724,9.04101 -37.08004,-138.37695 18.6465,-21.21485 26.75394,9.05079 65.9668,246.19921 62.7656,-108.71484 -47.5742,-177.55859 18.6425,-21.21485 26.7539,9.05078 35.4122,132.15821 131.6328,-227.99414 28.1875,-1.81836 12.5175,25.31836 -131.6328,227.99414 132.1582,-35.41016 21.2129,18.64258 -9.0507,26.75586 -177.5547,47.57617 -62.7657,108.71484 246.1954,-65.9707 21.2167,18.64453 -9.0507,26.75586 -138.375,37.07617 11.8007,2.36133 5.5372,27.69531 -30.1289,30.12887 41.1582,-11.0273 21.2128,18.6445 -3.8554,11.4004 101.3008,-101.29881 27.6914,5.53711 5.539,27.69531 -180.2265,180.23049 h 125.5293 l 129.9804,-129.9805 27.6953,5.5391 5.5411,27.6953 -96.7461,96.7461 h 263.2636 l 15.6661,23.5 -15.6661,23.5 h -263.2636 l 96.7461,96.74614 -5.5411,27.6953 -27.6953,5.539 -129.9804,-129.98044 h -125.5293 l 180.2265,180.23044 -5.539,27.6934 -27.6914,5.5391 -101.3008,-101.2989 3.8554,11.4004 -21.2128,18.6446 -41.1582,-11.0274 30.1289,30.1289 -5.5372,27.6953 -11.8007,2.3594 138.375,37.0781 9.0507,26.7539 -21.2167,18.6446 -246.1954,-65.9688 62.7657,108.71294 177.5547,47.5762 9.0507,26.7559 -21.2129,18.6425 -132.1582,-35.4121 131.6328,227.9961 -12.5175,25.3184 -28.1875,-1.8184 -131.6328,-227.9961 -35.4122,132.1602 -26.7539,9.0508 -18.6425,-21.2149 47.5742,-177.5586 -62.7656,-108.71294 -65.9668,246.19734 -26.75394,9.0508 -18.6465,-21.2149 37.08004,-138.375 -7.94534,9.0391 -26.7558,-9.0508 -11.0274,-41.15434 -11.0254,41.15434 -26.75777,9.0508 -7.94336,-9.0391 37.08003,138.375 -18.64643,21.2149 -26.75391,-9.0508 -65.9668,-246.19734 -62.76758,108.71294 47.57618,177.5586 -18.64258,21.2149 -26.75391,-9.0508 -35.41211,-132.1602 -131.63476,227.9961 -28.18555,1.8184 -12.51758,-25.3184 131.63281,-227.9961 -132.1582,35.4121 -21.21289,-18.6425 9.05078,-26.7559 177.55469,-47.5762 62.76562,-108.71294 -246.19531,65.9688 -21.21679,-18.6446 9.05078,-26.7539 138.375,-37.0781 -11.80078,-2.3594 -5.53711,-27.6953 30.1289,-30.1289 -41.1582,11.0274 -21.21289,-18.6446 3.85547,-11.4004 -101.30078,101.2989 -27.69141,-5.5391 -5.54102,-27.6934 180.22852,-180.23044 h -125.5293 l -129.98047,129.98044 -27.69531,-5.539 -5.54101,-27.6953 96.74609,-96.74614 H 37.90235 l -15.66602,-23.5 15.66602,-23.5 h 263.26367 l -96.74609,-96.7481 5.54101,-27.6953 27.69531,-5.5371 129.98047,129.9805 h 125.5293 L 312.9375,466.49023 l 5.54102,-27.69531 27.69141,-5.53711 101.30078,101.29881 -3.85547,-11.4004 21.21289,-18.6445 41.1582,11.0273 -30.1289,-30.13082 5.53711,-27.69336 11.80078,-2.36133 -138.375,-37.07617 -9.05078,-26.75586 21.21679,-18.64453 246.19531,65.96875 -62.76562,-108.71289 -177.55469,-47.57617 -9.05078,-26.75586 21.21289,-18.64258 132.1582,35.41211 L 385.54883,44.57422 Z m 375.83395,201.25781 20.4864,76.45703 -20.4864,6.92969 -20.48629,-6.93164 z m -52.70504,125.22852 -34.07618,127.16796 38.76758,67.14457 23.6875,-88.40238 z m 105.41218,0 -28.37894,105.91211 23.68754,88.40042 38.7656,-67.14652 z m -105.41609,71.48046 9.22656,34.43165 -10.84375,40.4707 -12.60351,-21.83008 z m 105.41999,0.004 14.2168,53.07227 -12.5996,21.82812 -10.84574,-40.46875 z m -442.16413,28.14258 76.45312,20.48437 -4.24218,21.20899 -16.24219,14.27539 z m 778.91023,0 -55.9707,55.96875 -16.2422,-14.27539 -4.2442,-21.20703 z m -644.10554,16.9668 77.53125,77.53128 88.39843,23.6875 -38.76562,-67.14652 z m 509.29694,0 -127.1621,34.07226 -38.7657,67.14652 88.3985,-23.6875 z m -447.39655,35.74023 53.07031,14.22075 12.60352,21.8281 -40.46875,-10.8438 z m 385.49415,0.002 -25.205,25.2051 -40.4668,10.8437 12.6035,-21.8281 z m -192.74614,44.373 -9.375,34.9883 h 18.75 z m -307.35543,11.1758 93.09179,93.0938 h 77.5293 l -64.71289,-64.7129 z m 614.71687,0 -105.9121,28.3809 -64.7129,64.7129 h 77.5293 z m -552.81648,35.7403 34.43164,9.2265 29.62695,29.625 h -25.20508 z m 490.91218,0 -38.8536,38.8496 h -25.205 l 29.6269,-29.625 z m -356.10359,16.9707 25.60742,25.6093 9.375,-16.2343 z m 221.29499,0 -34.9824,9.375 9.375,16.2343 z m -137.07819,18.1015 -26.4336,45.7813 26.4336,45.7812 h 52.86135 l 26.43364,-45.7812 -26.43364,-45.7813 z m 10.67965,18.4981 h 31.5039 l 15.75,27.2812 -15.75,27.2793 h -31.5039 l -15.75192,-27.2812 z m -198.51364,50.7832 -93.09179,93.0918 105.9082,-28.3789 64.71289,-64.7129 z m 351.00008,0 64.7129,64.7129 105.9082,28.3789 -93.0918,-93.0918 z m -221.77547,14.7734 -25.60742,25.6094 34.98242,-9.3731 z m 170.08017,0 -9.375,16.2344 34.9824,9.375 z m -291.64462,3.7227 h 25.20508 l -29.625,29.625 -34.42969,9.2265 z m 388.00202,0 h 25.205 l 38.8536,38.8535 -34.4336,-9.2266 z m -190.77354,50.7851 9.375,34.9864 9.375,-34.9864 z m -79.34372,13.8828 -88.39843,23.6875 -77.53321,77.5332 127.16602,-34.0742 z m 177.43946,0 38.7657,67.1465 127.1621,34.0723 -77.5293,-77.5313 z m -136.73438,23.5 -38.76758,67.1465 34.07618,127.166 28.3789,-105.9121 z m 96.02938,0 -23.68754,88.4024 28.37894,105.9101 34.0742,-127.1679 z m -175.08797,5.9258 -12.60352,21.8282 -53.07031,14.2207 25.20508,-25.2051 z m 254.14657,0 40.4707,10.8457 25.2031,25.2032 -53.0703,-14.2207 z m -460.55868,32.7871 16.24219,14.2754 4.24218,21.2071 -76.45312,20.4843 z m 666.97078,0 55.9668,55.9707 -76.4532,-20.4843 4.2442,-21.211 z m -387.81258,9.2129 10.84375,40.4688 -9.22656,34.4297 -14.21875,-53.0703 z m 108.65438,0 12.6035,21.8282 -14.2207,53.0742 -9.22854,-34.4317 z m -54.32824,188.22464 20.4864,6.9317 -20.4864,76.4551 -20.48629,-76.459 z" />
</svg>
