<?xml version="1.0" encoding="UTF-8" standalone="no"?>
<svg
   class="snowflake rotate"
   viewBox="0 0 1175.2206 1143.25"
   title="Snowflake"
   version="1.1"
   id="svg362"
   sodipodi:docname="snowflake-privilege.svg"
   width="1175.2206"
   height="1143.25"
   inkscape:version="1.1.1 (3bf5ae0d25, 2021-09-20, custom)"
   xmlns:inkscape="http://www.inkscape.org/namespaces/inkscape"
   xmlns:sodipodi="http://sodipodi.sourceforge.net/DTD/sodipodi-0.dtd"
   xmlns="http://www.w3.org/2000/svg"
   xmlns:svg="http://www.w3.org/2000/svg">
  <defs
     id="defs366" />
  <sodipodi:namedview
     id="namedview364"
     pagecolor="#ffffff"
     bordercolor="#666666"
     borderopacity="1.0"
     inkscape:pageshadow="2"
     inkscape:pageopacity="0.0"
     inkscape:pagecheckerboard="0"
     showgrid="false"
     fit-margin-top="0"
     fit-margin-left="0"
     fit-margin-right="0"
     fit-margin-bottom="0"
     inkscape:zoom="0.61730422"
     inkscape:cx="476.26436"
     inkscape:cy="558.88165"
     inkscape:window-width="2560"
     inkscape:window-height="1411"
     inkscape:window-x="0"
     inkscape:window-y="0"
     inkscape:window-maximized="1"
     inkscape:current-layer="svg362" />
  <path
     id="path1600"
     style="color:#000000;fill:#000000;stroke:none;stroke-width:11;-inkscape-stroke:none"
     d="m 501.39453,0 -3.4727,1.17578 -9.6171,3.2539 -65.4434,244.24024 -7.0527,2.38672 -38.3575,-66.4375 24.1172,-90.00586 -9.123,-10.38086 -13.0918,4.42969 -18.166,67.78906 -5.7364,-9.9375 22.5645,-84.20703 -9.1231,-10.38477 -13.0937,4.43164 -16.6113,61.99414 -31.5899,-54.71875 -13.7929,-0.88867 -6.125,12.38867 31.5917,54.7168 -61.9941,-16.61133 -10.3848,9.12305 4.4317,13.0918 84.209,22.56445 5.7382,9.9375 -67.7929,-18.16602 -10.3789,9.12696 4.4277,13.08984 90.0059,24.11719 38.3574,66.43554 -5.5918,4.91407 -244.2402,-65.44336 -10.3848,9.12304 4.4297,13.0918 276.4297,74.07031 31.7382,54.97071 -82.2812,-22.0488 -10.3789,9.1269 4.4277,13.0899 104.4942,28 60.7363,105.1992 -113.8906,-30.5176 -51.6953,-51.6973 -13.5547,2.711 -2.709,13.5547 23.5254,23.5254 -32.1367,-8.6114 -10.3809,9.1231 4.4277,13.0937 70.6192,18.9219 83.373,83.3731 h -121.4746 l -76.4941,-76.4942 -13.5528,2.7109 -2.7089,13.5528 60.2304,60.2305 h -63.4746 l -202.3594,-202.3594 -13.5527,2.7109 -2.709,13.5527 178.7969,178.7969 -1.4609,7.2989 h -76.7149 l -65.8867,-65.8887 -13.5547,2.7109 -2.709,13.5547 49.625,49.6231 h -11.4746 l -61.6445,-61.6465 -13.5547,2.7109 -2.709,13.5547 45.3828,45.3809 H 7.66603 l -7.66603,11.5 7.66603,11.5 h 63.1816 l -45.3828,45.3828 2.709,13.5527 13.5547,2.7109 61.6445,-61.6464 h 11.4746 l -49.625,49.6249 2.709,13.5528 13.5547,2.7109 65.8867,-65.8886 h 76.7149 l 1.4589,7.3007 -178.7949,178.7969 2.709,13.5508 13.5527,2.7109 202.3594,-202.3593 h 63.4746 l -60.2304,60.2324 2.7089,13.5507 13.5528,2.711 76.4941,-76.4941 h 121.4746 l -83.373,83.373 -70.6192,18.9219 -4.4277,13.0937 10.3809,9.1231 32.1367,-8.6114 -23.5254,23.5274 2.709,13.5527 13.5547,2.711 51.6953,-51.6954 113.8906,-30.5195 -60.7363,105.1992 -104.4942,28 -4.4277,13.0918 10.3789,9.125 82.2812,-22.0488 -31.7382,54.9707 -276.4297,74.0703 -4.4297,13.0918 10.3848,9.1231 244.2402,-65.4434 5.5918,4.9141 -38.3574,66.4355 -90.0059,24.1172 -4.4277,13.0918 10.3789,9.125 67.7929,-18.166 -5.7382,9.9375 -84.209,22.56445 -4.4317,13.0918 10.3848,9.1231 61.9941,-16.6114 -31.5917,54.7168 6.125,12.3887 13.7929,-0.8867 31.5899,-54.7207 16.6113,61.9941 13.0937,4.4336 9.1231,-10.3847 -22.5645,-84.20905 5.7364,-9.9375 18.166,67.79105 13.0918,4.4277 9.123,-10.3808 -24.1172,-90.00595 38.3555,-66.4355 7.0547,2.3847 65.4434,244.24225 13.0898,4.4277 9.1269,-10.3808 -74.0703,-276.42975 31.7364,-54.9707 22.0468,82.2812 13.0938,4.4278 9.123,-10.3828 -28,-104.4942 60.7364,-105.2011 30.5175,113.8925 -18.9238,70.6192 9.127,10.3808 13.0918,-4.4277 8.6113,-32.1387 8.6113,32.1387 13.0899,4.4277 9.1269,-10.3808 -18.9238,-70.6192 30.5176,-113.8906 60.7382,105.1992 -28,104.4942 9.1211,10.3828 13.0957,-4.4278 22.045,-82.2792 31.7382,54.9687 -74.0722,276.42965 9.123,10.3808 13.0957,-4.4277 65.4434,-244.24215 7.0527,-2.3847 38.3574,66.4355 -24.1191,90.00585 9.125,10.3808 13.0918,-4.4277 18.164,-67.79095 5.7383,9.9375 -22.5645,84.20905 9.1231,10.3847 13.0918,-4.4337 16.6113,-61.9921 31.5918,54.7188 13.791,0.8867 6.125,-12.3887 -31.5918,-54.7168 61.9942,16.6114 10.3847,-9.1231 -4.4316,-13.0918 -84.209,-22.56445 -5.7383,-9.9375 67.793,18.166 10.3809,-9.125 -4.4297,-13.0918 -90.0059,-24.1172 -38.3574,-66.4355 5.5918,-4.9141 244.24017,65.4434 10.3848,-9.1231 -4.4297,-13.0918 -276.42957,-74.0703 -31.7383,-54.9707 82.2812,22.0488 10.3789,-9.125 -4.4277,-13.0918 -104.4941,-28 -60.7364,-105.1992 113.8907,30.5176 51.6952,51.6973 13.5547,-2.711 2.709,-13.5527 -23.5254,-23.5274 32.1367,8.6114 10.3828,-9.1231 -4.4296,-13.0937 -70.6192,-18.9219 -83.373,-83.373 h 121.4746 l 76.4941,76.4941 13.5528,-2.711 2.7089,-13.5507 -60.2304,-60.2324 h 63.4746 l 202.35927,202.3593 13.5528,-2.7109 2.709,-13.5508 -178.79497,-178.7969 1.459,-7.3007 h 76.71487 l 65.8867,65.8886 13.5547,-2.7109 2.709,-13.5528 -49.625,-49.6249 h 11.4746 l 61.6445,61.6464 13.5547,-2.7109 2.709,-13.5527 -45.3828,-45.3828 h 63.1816 l 7.666,-11.5 -7.666,-11.5 h -63.1816 l 45.3828,-45.3809 -2.709,-13.5547 -13.5547,-2.7109 -61.6445,61.6465 h -11.4746 l 49.625,-49.6231 -2.709,-13.5547 -13.5547,-2.7109 -65.8867,65.8887 h -76.71487 l -1.4609,-7.2989 178.79687,-178.7969 -2.709,-13.5527 -13.5528,-2.7109 -202.35927,202.3594 h -63.4746 l 60.2304,-60.2305 -2.7089,-13.5528 -13.5528,-2.7109 -76.4941,76.4942 h -121.4746 l 83.373,-83.3731 70.6192,-18.9219 4.4296,-13.0937 -10.3828,-9.1231 -32.1367,8.6114 23.5254,-23.5254 -2.709,-13.5547 -13.5547,-2.711 -51.6952,51.6973 -113.8907,30.5176 60.7364,-105.1992 104.4941,-28 4.4277,-13.0899 -10.3789,-9.1269 -82.2812,22.0488 31.7383,-54.97071 276.42957,-74.07031 4.4297,-13.0918 -10.3848,-9.12304 -244.24017,65.44336 -5.5918,-4.91407 38.3574,-66.43554 90.0059,-24.11719 4.4297,-13.08984 -10.3809,-9.12696 -67.793,18.16602 5.7383,-9.9375 84.209,-22.56445 4.4316,-13.0918 -10.3847,-9.12305 -61.9942,16.61133 31.5918,-54.7168 -6.125,-12.38867 -13.791,0.88867 -31.5918,54.7168 -16.6113,-61.99219 -13.0918,-4.43164 -9.1231,10.38477 22.5645,84.20703 -5.7383,9.9375 -18.164,-67.78906 -13.0918,-4.42969 -9.125,10.38086 24.1191,90.00586 -38.3593,66.4375 -7.0508,-2.38672 L 686.91793,4.42773 673.82223,0 l -9.123,10.38086 74.0722,276.42968 -31.7382,54.96871 -22.045,-82.27925 -13.0957,-4.42774 -9.1211,10.38477 28,104.49222 -60.7382,105.1992 -30.5176,-113.8906 18.9238,-70.61918 -9.1269,-10.38086 -13.0899,4.42969 -8.6113,32.13865 -8.6113,-32.13865 -13.0918,-4.42969 -9.127,10.38086 18.9238,70.61918 -30.5175,113.8925 -60.7364,-105.2011 28,-104.49222 -9.123,-10.38477 -13.0938,4.42774 -22.0468,82.28125 -31.7364,-54.97071 74.0703,-276.42968 z m 86.2168,405.68945 23.5117,87.752 h -47.0254 z m -143.7051,82.9688 87.752,23.5117 -23.5137,40.7265 z m 287.4082,0 -64.2383,64.2382 -23.5136,-40.7265 z m -175.5664,27.7832 h 63.7246 l 31.8594,55.1836 -31.8594,55.1835 h -63.7246 l -31.8594,-55.1835 z m -47.6035,73.9121 23.5137,40.7265 -87.752,23.5117 z m 158.9316,0 64.2383,64.2382 -87.7519,-23.5117 z m -102.9785,59.455 h 47.0254 l -23.5117,87.752 z" />
  <path
     id="path182"
     d="m 499.68463,6.38476 -6.8301,2.31054 -66.3008,247.44339 -1.9727,-2.2442 -6.832,2.3106 -1.6855,6.2929 -44.5157,-77.1015 23.9454,-89.3633 -4.7598,-5.416 -6.8301,2.3105 -20.8398,77.7715 -13.5157,-23.4082 22.3926,-83.5664 -4.7597,-5.418 -6.8301,2.3125 -19.2871,71.9766 -36.7578,-63.668 -7.1954,-0.4629 -3.1953,6.4629 36.7578,63.668 -71.9765,-19.2871 -5.418,4.7598 2.3125,6.83 83.5664,22.3926 13.5156,23.4082 -77.7734,-20.8398 -5.416,4.7617 2.3105,6.8301 89.3633,23.9453 44.5156,77.1015 -6.2949,-1.6855 -5.416,4.7598 0.957,2.8281 -247.4414,-66.3008 -5.4179,4.7598 2.3105,6.83 275.7871,73.8985 39.5156,68.44136 -92.2617,-24.7226 -5.416,4.7617 2.3106,6.8301 103.8515,27.8281 68.5137,118.6699 -128.1387,-34.334 -50.6562,-50.6582 -7.0723,1.4141 -1.4141,7.0723 35.959,35.9589 -49.1211,-13.1621 -5.416,4.7598 2.3106,6.832 69.1992,18.541 93.8047,93.8047 h -137.0313 l -76.0234,-76.0234 -7.0703,1.4141 -1.4141,7.0703 67.5391,67.539 h -79.0313 l -201.8887,-201.8886 -7.0703,1.414 -1.414,7.0703 181.1406,181.1407 -2.9297,0.5859 -1.4141,7.0703 4.6075,4.6074 h -89.0313 l -65.416,-65.4179 -7.0723,1.414 -1.414,7.0723 56.9336,56.9316 h -27.0313 l -61.1738,-61.1758 -7.0723,1.4141 -1.414,7.0723 52.6914,52.6894 h -73.5157 l -3.99999,6 3.99999,6 h 73.5157 l -52.6914,52.6895 1.414,7.0722 7.0723,1.4141 61.1738,-61.1758 h 27.0313 l -56.9336,56.9316 1.414,7.0723 7.0723,1.4141 65.416,-65.418 h 89.0313 l -4.6075,4.6074 1.4141,7.0703 2.9297,0.586 -181.1406,181.1406 1.414,7.0703 7.0703,1.4141 201.8887,-201.8887 h 79.0313 l -67.5391,67.5391 1.4141,7.0703 7.0703,1.414 76.0234,-76.0234 h 137.0313 l -93.8047,93.8047 -69.1992,18.541 -2.3106,6.832 5.416,4.7598 49.1211,-13.1621 -35.959,35.959 1.4141,7.0722 7.0723,1.4141 50.6562,-50.6562 128.1387,-34.336 -68.5137,118.6699 -103.8515,27.8282 -2.3106,6.83 5.416,4.7618 92.2617,-24.7227 -39.5156,68.4414 -275.7871,73.8984 -2.3105,6.8301 5.4179,4.7598 247.4414,-66.3008 -0.957,2.8281 5.416,4.7598 6.2949,-1.6855 -44.5156,77.1015 -89.3633,23.9453 -2.3105,6.8301 5.416,4.7617 77.7734,-20.8398 -13.5156,23.4082 -83.5664,22.39265 -2.3125,6.83 5.418,4.7598 71.9765,-19.2871 -36.7578,63.668 3.1953,6.4629 7.1954,-0.4629 36.7578,-63.668 19.2871,71.9766 6.8301,2.3125 4.7597,-5.418 -22.3926,-83.56645 13.5157,-23.4082 20.8398,77.77155 6.8301,2.3105 4.7598,-5.416 -23.9454,-89.36335 44.5157,-77.1015 1.6855,6.2929 6.832,2.3106 1.9727,-2.2442 66.3008,247.44345 6.8301,2.3105 4.7617,-5.416 -73.8985,-275.78715 39.5157,-68.4414 24.7207,92.2617 6.832,2.3106 4.7598,-5.418 -27.8282,-103.8516 68.5157,-118.6718 34.3359,128.1406 -18.543,69.1992 4.7618,5.416 6.83,-2.3105 13.1621,-49.1231 13.1621,49.1231 6.8301,2.3105 4.7617,-5.416 -18.543,-69.1992 34.336,-128.1406 68.5156,118.6718 -27.8281,103.8516 4.7597,5.418 6.8321,-2.3106 24.7207,-92.2617 39.5156,68.4414 -73.8984,275.78715 4.7597,5.416 6.8321,-2.3105 66.3007,-247.44345 1.9727,2.2442 6.832,-2.3106 1.6856,-6.2929 44.5156,77.1015 -23.9453,89.36335 4.7598,5.416 6.83,-2.3105 20.8399,-77.77155 13.5156,23.4082 -22.3926,83.56645 4.7598,5.418 6.8301,-2.3125 19.2871,-71.9766 36.7578,63.668 7.1953,0.4629 3.1953,-6.4629 -36.7578,-63.668 71.9766,19.2871 5.4179,-4.7598 -2.3125,-6.83 -83.5664,-22.39265 -13.5156,-23.4082 77.7734,20.8398 5.4161,-4.7617 -2.3106,-6.8301 -89.3633,-23.9453 -44.5156,-77.1015 6.2949,1.6855 5.416,-4.7598 -0.957,-2.8281 247.44137,66.3008 5.418,-4.7598 -2.3106,-6.8301 -275.78707,-73.8984 -39.5156,-68.4414 92.2617,24.7227 5.416,-4.7618 -2.3105,-6.83 -103.8516,-27.8282 -68.5136,-118.6699 128.1386,34.334 50.6563,50.6582 7.0722,-1.4141 1.4141,-7.0722 -35.959,-35.959 49.1211,13.1621 5.416,-4.7598 -2.3105,-6.832 -69.1992,-18.541 -93.8047,-93.8047 h 137.0312 l 76.0235,76.0234 7.0703,-1.414 1.414,-7.0703 -67.539,-67.5391 h 79.0312 l 201.88867,201.8887 7.0703,-1.4141 1.4141,-7.0703 -181.14067,-181.1406 2.9297,-0.586 1.4141,-7.0703 -4.6074,-4.6074 h 89.03117 l 65.416,65.418 7.0723,-1.4141 1.4141,-7.0723 -56.9336,-56.9316 h 27.0312 l 61.1739,61.1758 7.0722,-1.4141 1.4141,-7.0722 -52.6914,-52.6895 h 73.5156 l 4,-6 -4,-6 h -73.5156 l 52.6914,-52.6894 -1.4141,-7.0723 -7.0722,-1.4141 -61.1739,61.1758 h -27.0312 l 56.9336,-56.9316 -1.4141,-7.0723 -7.0723,-1.414 -65.416,65.4179 h -89.03117 l 4.6074,-4.6074 -1.4141,-7.0703 -2.9297,-0.5859 181.14067,-181.1407 -1.4141,-7.0703 -7.0703,-1.414 -201.88867,201.8886 h -79.0312 l 67.539,-67.539 -1.414,-7.0703 -7.0703,-1.4141 -76.0235,76.0234 h -137.0312 l 93.8047,-93.8047 69.1992,-18.541 2.3105,-6.832 -5.416,-4.7598 -49.1211,13.1621 35.959,-35.9589 -1.4141,-7.0723 -7.0722,-1.4141 -50.6563,50.6582 -128.1386,34.334 68.5136,-118.6699 103.8516,-27.8281 2.3105,-6.8301 -5.416,-4.7617 -92.2617,24.7226 39.5156,-68.44136 275.78707,-73.8985 2.3106,-6.83 -5.418,-4.7598 -247.44137,66.3008 0.957,-2.8281 -5.416,-4.7598 -6.2949,1.6855 44.5156,-77.1015 89.3633,-23.9453 2.3106,-6.8301 -5.4161,-4.7617 -77.7734,20.8398 13.5156,-23.4082 83.5664,-22.3926 2.3125,-6.83 -5.4179,-4.7598 -71.9766,19.2871 36.7578,-63.668 -3.1953,-6.4629 -7.1953,0.4629 -36.7578,63.668 -19.2871,-71.9766 -6.8301,-2.3125 -4.7598,5.418 22.3926,83.5664 -13.5156,23.4082 -20.8399,-77.7715 -6.83,-2.3105 -4.7598,5.416 23.9453,89.3633 -44.5156,77.1015 -1.6856,-6.2929 -6.832,-2.3106 -1.9727,2.2442 -66.3007,-247.44339 -6.8321,-2.31054 -4.7597,5.41601 73.8984,275.78712 -39.5156,68.44136 -24.7207,-92.26166 -6.8321,-2.3106 -4.7597,5.418 27.8281,103.85156 -68.5156,118.6719 -34.336,-128.1407 18.543,-69.19916 -4.7617,-5.416 -6.8301,2.3105 -13.1621,49.12306 -13.1621,-49.12306 -6.83,-2.3105 -4.7618,5.416 18.543,69.19916 -34.3359,128.1407 -68.5157,-118.6719 27.8282,-103.85156 -4.7598,-5.418 -6.832,2.3106 -24.7207,92.26166 -39.5157,-68.44136 73.8985,-275.78712 z m 87.9257,378.05469 30.6816,114.5019 h -61.3632 z m -162.1074,93.5937 114.502,30.6797 -30.6817,53.1407 z m 324.2148,0 -83.8203,83.8204 -30.6816,-53.1407 z m -197.1445,32.9082 h 70.0742 l 35.0352,60.6836 -35.0352,60.6836 h -70.0742 l -35.0351,-60.6836 z m -43.25,70.4551 30.6817,53.1406 -114.502,30.6797 z m 156.5742,0 83.8203,83.8203 -114.5019,-30.6797 z m -108.9687,62.9121 h 61.3632 l -30.6816,114.5019 z"
     style="fill:#ffffff" />
</svg>
