<?xml version="1.0" encoding="UTF-8" standalone="no"?>
<svg
   class="snowflake rotate"
   viewBox="0 0 1368.4689 1238.5117"
   title="Snowflake"
   version="1.1"
   id="svg362"
   sodipodi:docname="156_473,302_241,369_56,392_45,396_86,465_116.svg"
   width="1368.4689"
   height="1238.5117"
   inkscape:version="1.1.1 (3bf5ae0d25, 2021-09-20, custom)"
   xmlns:inkscape="http://www.inkscape.org/namespaces/inkscape"
   xmlns:sodipodi="http://sodipodi.sourceforge.net/DTD/sodipodi-0.dtd"
   xmlns="http://www.w3.org/2000/svg"
   xmlns:svg="http://www.w3.org/2000/svg">
  <defs
     id="defs366" />
  <sodipodi:namedview
     id="namedview364"
     pagecolor="#ffffff"
     bordercolor="#666666"
     borderopacity="1.0"
     inkscape:pageshadow="2"
     inkscape:pageopacity="0.0"
     inkscape:pagecheckerboard="0"
     showgrid="false"
     fit-margin-top="0"
     fit-margin-left="0"
     fit-margin-right="0"
     fit-margin-bottom="0"
     inkscape:zoom="0.4365"
     inkscape:cx="728.52234"
     inkscape:cy="572.73769"
     inkscape:window-width="2560"
     inkscape:window-height="1411"
     inkscape:window-x="0"
     inkscape:window-y="0"
     inkscape:window-maximized="1"
     inkscape:current-layer="svg362" />
  <path
     id="path9444"
     style="color:#000000;fill:#20a7b1;fill-opacity:1;stroke-width:37;-inkscape-stroke:none"
     d="m 632.50586,0 -21.81836,24.82617 45.07813,168.23242 -58.91016,219.85157 -34.10937,-59.08008 61.98828,-231.34766 -21.81641,-24.82617 -31.30859,10.58984 -34.30469,128.02539 -9.09765,-10.35156 9.41211,-35.125 -21.81836,-24.82617 -24.23829,8.19922 19.32032,-72.10742 -21.81836,-24.82617 -31.30664,10.59179 -15.40235,57.48438 -67.25586,-116.49219 -32.98242,-2.12695 -14.64843,29.62695 67.2539,116.49023 -57.48242,-15.40234 -24.82617,21.81641 10.59179,31.30859 72.10743,19.32031 -19.22071,16.89258 10.5918,31.3086 35.125,9.4121 4.41602,13.05274 L 298,266.21484 l -24.82617,21.81836 10.5918,31.3086 231.34766,61.98828 34.10937,59.08008 L 329.36915,381.5 206.2168,258.34766 l -32.4082,6.48242 -6.48242,32.4082 55.79297,55.79297 -76.21289,-20.42187 -24.82618,21.81836 10.58985,31.30664 168.23047,45.07812 160.94336,160.94336 H 393.625 l -169.35937,-169.35938 -32.4082,6.48243 -6.48243,32.4082 93.72071,93.7207 -13.51563,2.70313 -25.71289,-25.71289 -32.4082,6.48242 -5.01953,25.08984 -52.78516,-52.78515 -32.4082,6.48242 -6.48242,32.4082 42.08008,42.08008 H 18.33399 L 0,619.25586 l 18.33399,27.5 h 134.50977 l -42.08008,42.0801 6.48242,32.4082 32.4082,6.4824 52.78516,-52.7852 5.01953,25.0899 32.4082,6.4824 25.71289,-25.7129 13.51563,2.7031 -93.72071,93.7208 6.48243,32.4082 32.4082,6.4824 169.35937,-169.3594 h 68.21876 l -160.94532,160.9453 -168.22851,45.0762 -10.58985,31.3066 24.82618,21.8184 76.21093,-20.4199 -55.79101,55.791 6.48242,32.4082 32.4082,6.4824 123.15235,-123.1523 219.85546,-58.9102 -34.10742,59.0781 -231.35156,61.9903 -10.5918,31.3086 24.82617,21.8183 128.0254,-34.3047 -4.41602,13.0567 -35.125,9.4121 -10.5918,31.3066 19.22071,16.89264 -72.10743,19.3203 -10.59179,31.3086 24.82617,21.8164 57.48437,-15.4023 -67.25585,116.4902 14.64843,29.627 32.98242,-2.127 67.25586,-116.4863 15.40235,57.4785 31.30664,10.5918 21.81836,-24.8262 -19.32032,-72.1074 24.23829,8.1992 21.81836,-24.8262 -9.41211,-35.125 9.09961,-10.3535 34.30273,128.0274 31.30859,10.5898 21.81641,-24.8262 -61.98828,-231.34964 34.10937,-59.08 58.90821,219.85354 -45.07618,168.2324 21.81836,24.8262 31.30664,-10.5918 20.42188,-76.2149 20.4219,76.2149 31.30665,10.5918 21.8184,-24.8262 -45.07815,-168.2324 58.91015,-219.85164 34.1094,59.0801 -61.9883,231.34764 21.8164,24.8262 31.3086,-10.5898 34.3047,-128.0254 9.0976,10.3515 -9.4121,35.125 21.8184,24.8262 24.2383,-8.1992 -19.3203,72.1074 21.8183,24.8262 31.3067,-10.5918 15.4023,-57.4844 67.2559,116.4922 32.98237,2.127 14.6484,-29.627 -67.25387,-116.4902 57.48237,15.4023 24.8262,-21.8164 -10.5918,-31.3086 -72.10737,-19.3203 19.2207,-16.89264 -10.5918,-31.3066 -35.125,-9.4121 -4.416,-13.0547 128.02537,34.3027 24.8261,-21.8183 -10.5917,-31.3086 -231.34767,-61.9883 -34.1094,-59.0801 219.85347,58.9102 123.1524,123.1523 32.4082,-6.4824 6.4824,-32.4082 -55.793,-55.793 76.2129,20.4219 24.8262,-21.8184 -10.5898,-31.3066 -168.2305,-45.0781 -160.94337,-160.9434 h 68.2188 l 169.35937,169.3594 32.4082,-6.4824 6.4824,-32.4082 -93.7207,-93.7208 13.5156,-2.7031 25.7129,25.7129 32.4082,-6.4824 5.0195,-25.0899 52.7852,52.7852 32.4082,-6.4824 6.4824,-32.4082 -42.0801,-42.0801 h 134.5098 l 18.334,-27.5 -18.334,-27.5 H 1215.625 l 42.0801,-42.08008 -6.4824,-32.4082 -32.4082,-6.48242 -52.7852,52.78515 -5.0195,-25.08984 -32.4082,-6.48242 -25.7129,25.71289 -13.5156,-2.70313 93.7207,-93.7207 -6.4824,-32.4082 -32.4082,-6.48243 -169.35937,169.35938 h -68.2188 l 160.94527,-160.94531 168.2286,-45.07617 10.5898,-31.30664 -24.8262,-21.81836 -76.2109,20.41992 55.791,-55.79102 -6.4824,-32.4082 -32.4082,-6.48242 -123.1524,123.15234 -219.85347,58.91016 34.1094,-59.08008 231.34767,-61.98828 10.5917,-31.3086 -24.8261,-21.81836 -128.02537,34.30469 4.416,-13.05469 35.125,-9.4121 10.5918,-31.3086 -19.2207,-16.89258 72.10737,-19.32031 10.5918,-31.30859 -24.8262,-21.81641 -57.48427,15.40234 L 1041,56.31836 l -14.6484,-29.62695 -32.98237,2.12695 -67.2559,116.48633 -15.4023,-57.47852 -31.3067,-10.59179 -21.8183,24.82617 19.3203,72.10742 -24.2383,-8.19922 -21.8184,24.82617 9.4121,35.125 -9.0996,10.35352 -34.3027,-128.02735 -31.3086,-10.58984 -21.8164,24.82617 61.9883,231.34961 -34.1094,59.08008 L 712.70508,193.05859 757.78133,24.82617 735.96293,0 704.65628,10.5918 684.23438,86.80664 663.8125,10.5918 Z m 51.72852,299.30859 42.1602,157.34766 h -84.32036 z m -277.08398,159.97266 157.34765,42.16211 -42.16015,73.0254 z m 554.16803,0 -115.1875,115.18751 -42.1602,-73.0254 z m -339.20514,52.375 h 124.24414 l 62.1211,107.59961 -62.123,107.5996 h -124.2442 l -62.12109,-107.5996 z m -99.77539,152.38671 42.1621,73.0274 -157.35156,42.1621 z m 323.79303,0 115.1875,115.1875 -157.3477,-42.1621 z m -204.05671,117.8125 h 84.32036 l -42.1602,157.3477 z" />
  <path
     id="path182"
     d="m 638.2598,21.47658 -7.1406,8.125 43.7969,163.4551 -71.75,267.7832 -60.2735,-104.3965 61.4102,-229.18551 -7.1407,-8.125 -10.246,3.46681 -56.75,211.7988 -20.7735,-35.97851 13.5293,-50.4903 -7.1406,-8.125 -8.2695,2.7989 1.0625,-3.9668 -2.2442,-2.5528 10.8555,-40.5136 -7.1406,-8.125 -10.2461,3.4648 -16.6328,62.082 -21.7735,-37.7109 29.0586,-108.4453 -7.1406,-8.125 -10.2461,3.4668 -24.3984,91.0586 -84.6368,-146.5938 -10.7949,-0.6953 -4.7949,9.6953 84.6367,146.5938 -91.0605,-24.3985 -8.125,7.1407 3.4668,10.2461 108.4472,29.0586 21.7715,37.7089 -62.082,-16.6347 -8.125,7.1406 3.4668,10.2461 40.5117,10.8555 1.0898,3.2207 3.9668,1.0625 -6.5566,5.7636 3.4648,10.2461 50.4922,13.5293 20.7696,35.9766 -211.7989,-56.75 -8.125,7.1387 3.4668,10.2461 229.1875,61.4121 60.2696,104.3925 -267.7813,-71.7519 -119.6562,-119.6563 -10.6075,2.1211 -2.1211,10.6075 97.6114,97.6113 -133.3379,-35.7285 -8.125,7.1406 3.4648,10.2461 163.4551,43.7988 196.0313,196.02929 H 385.961 l -167.7754,-167.77729 -10.6074,2.1211 -2.1211,10.6074 155.0508,155.04879 H 318.961 L 282,573.29296 l -10.6054,2.1231 -1.7129,8.5586 -2.9024,-2.9024 -3.3339,0.666 -29.6583,-29.65818 -10.6074,2.1211 -2.1211,10.6074 45.4493,45.44728 H 222.961 l -79.3867,-79.38868 -10.6075,2.1211 -2.1211,10.6075 66.6622,66.66008 H 28.2344 l -6,9 6,9 h 169.2735 l -66.6622,66.6602 2.1211,10.6074 10.6075,2.1211 79.3867,-79.3887 h 43.5469 l -45.4493,45.4473 2.1211,10.6074 10.6074,2.1211 29.6583,-29.6582 3.3339,0.666 2.9024,-2.9024 1.7129,8.5586 10.6054,2.1211 36.961,-36.9609 h 41.5469 l -155.0508,155.0488 2.1211,10.6074 10.6074,2.1211 167.7754,-167.7773 h 120.5469 l -196.0313,196.0312 -163.4551,43.7969 -3.4648,10.2461 8.125,7.1406 133.3379,-35.7285 -97.6114,97.6114 2.1211,10.6074 10.6075,2.1211 119.6562,-119.6563 267.7813,-71.7519 -60.2696,104.3925 -229.1875,61.4122 -3.4668,10.2461 8.125,7.1406 211.7989,-56.752 -20.7696,35.9766 -50.4922,13.5293 -3.4648,10.2461 6.5566,5.7636 -3.9668,1.0625 -1.0898,3.2207 -40.5117,10.8555 -3.4668,10.2461 8.125,7.1406 62.082,-16.6347 -21.7715,37.70904 -108.4472,29.0585 -3.4668,10.2461 8.125,7.1407 91.0605,-24.3985 -84.6367,146.5938 4.7949,9.6953 10.7949,-0.6953 84.6368,-146.5938 24.3984,91.0586 10.2461,3.4668 7.1406,-8.125 -29.0586,-108.4453 21.7735,-37.71094 16.6328,62.08204 10.2461,3.4648 7.1406,-8.125 -10.8555,-40.5136 2.2442,-2.55284 -1.0625,-3.9668 8.2695,2.7989 7.1406,-8.125 -13.5293,-50.4903 20.7735,-35.9785 56.75,211.79884 10.246,3.4668 7.1407,-8.125 -61.4102,-229.18554 60.2735,-104.3965 71.7519,267.78134 -43.7988,163.457 7.1406,8.125 10.2461,-3.4668 35.7285,-133.3418 35.7285,133.3418 10.24613,3.4668 7.1406,-8.125 -43.79683,-163.4551 71.75003,-267.78324 60.2733,104.3965 -61.4101,229.18554 7.1407,8.125 10.2461,-3.4668 56.7499,-211.79884 20.7734,35.9785 -13.5293,50.4903 7.1406,8.125 8.2696,-2.7989 -1.0625,3.9668 2.2441,2.55284 -10.8555,40.5136 7.1407,8.125 10.246,-3.4648 16.6329,-62.08204 21.7734,37.71094 -29.0586,108.4453 7.1406,8.125 10.2461,-3.4668 24.3985,-91.0586 84.63667,146.5938 10.7949,0.6953 4.7949,-9.6953 -84.63667,-146.5938 91.06057,24.3985 8.125,-7.1407 -3.4668,-10.2461 -108.44727,-29.0585 -21.7715,-37.70904 62.082,16.6347 8.125,-7.1406 -3.4668,-10.2461 -40.5117,-10.8555 -1.0898,-3.2207 -3.9668,-1.0625 6.5566,-5.7636 -3.4648,-10.2461 -50.4922,-13.5293 -20.7695,-35.9766 211.79877,56.752 8.125,-7.1406 -3.4668,-10.2461 -229.18747,-61.4122 -60.2694,-104.3925 267.78107,71.7519 119.6563,119.6563 10.6075,-2.1211 2.1211,-10.6074 -97.6114,-97.6114 133.3379,35.7285 8.125,-7.1406 -3.4648,-10.2461 -163.4551,-43.7988 -196.03117,-196.0293 h 120.5468 l 167.77537,167.7773 10.6074,-2.1211 2.1211,-10.6074 -155.0507,-155.0488 h 41.5468 l 36.961,36.9609 10.6054,-2.1211 1.7129,-8.5586 2.9024,2.9024 3.334,-0.666 29.6582,29.6582 10.6074,-2.1211 2.1211,-10.6074 -45.4492,-45.4473 h 43.5468 l 79.3868,79.3887 10.6074,-2.1211 2.1211,-10.6074 -66.6621,-66.6602 h 169.2734 l 6,-9 -6,-9 H 1170.961 l 66.6621,-66.66008 -2.1211,-10.6075 -10.6074,-2.1211 -79.3868,79.38868 h -43.5468 l 45.4492,-45.44728 -2.1211,-10.6074 -10.6074,-2.1211 -29.6582,29.65818 -3.334,-0.666 -2.9024,2.9043 -1.7129,-8.5605 -10.6054,-2.1231 -36.961,36.9629 h -41.5468 l 155.0507,-155.04879 -2.1211,-10.6074 -10.6074,-2.1211 -167.77537,167.77729 h -120.5468 l 196.03107,-196.03119 163.4551,-43.7969 3.4648,-10.2461 -8.125,-7.1406 -133.3379,35.7285 97.6114,-97.6113 -2.1211,-10.6075 -10.6074,-2.1211 -119.6563,119.6563 -267.78107,71.7519 60.2694,-104.3925 229.18747,-61.4121 3.4668,-10.2461 -8.125,-7.1407 -211.79877,56.752 20.7695,-35.9766 50.4922,-13.5293 3.4648,-10.2461 -6.5566,-5.7636 3.9668,-1.0625 1.0898,-3.2207 40.5117,-10.8555 3.4668,-10.2461 -8.125,-7.1406 -62.082,16.6347 21.7715,-37.7089 108.44727,-29.0586 3.4668,-10.2461 -8.125,-7.1407 -91.06057,24.3985 84.63667,-146.5938 -4.7949,-9.6953 -10.7949,0.6953 -84.63667,146.5938 -24.3985,-91.0586 -10.2461,-3.4668 -7.1406,8.125 29.0586,108.4453 -21.7734,37.7109 -16.6329,-62.082 -10.246,-3.4648 -7.1407,8.125 10.8555,40.5136 -2.2441,2.5528 1.0625,3.9668 -8.2696,-2.7989 -7.1406,8.125 13.5293,50.4903 -20.7734,35.9785 -56.7499,-211.7988 -10.2461,-3.4668 -7.1407,8.125 61.4101,229.1855 -60.2733,104.3965 -71.75203,-267.7813 43.79883,-163.457 -7.1406,-8.125 -10.24613,3.4668 -35.7285,133.3418 -35.7285,-133.3418 z m 45.9746,206.3535 66.27153,247.3262 H 617.9629 Z m -338.9844,195.7129 247.3243,66.2715 -66.2696,114.78518 z m 677.9687,0 -181.05467,181.05468 -66.2694,-114.78318 z m -411.787,69.6133 h 145.60543 l 72.8046,126.09958 -72.8046,126.0996 H 611.4317 L 538.627,619.25586 Z m 230.73233,140.75578 181.05467,181.0567 -247.32407,-66.2715 z m -315.85933,0 66.2696,114.7832 -247.3243,66.2715 z m 91.6582,129.4414 H 750.50593 L 684.2344,1010.6797 Z"
     style="fill:#58ebf7;fill-opacity:1" />
</svg>
