<?xml version="1.0" encoding="UTF-8" standalone="no"?>
<svg
   xmlns="http://www.w3.org/2000/svg"
   width="51.234638mm"
   height="51.234638mm"
   viewBox="0 0 51.234638 51.234638"
   version="1.1"
   >
  <g
     transform="translate(-96.090815,-224.60292)">
    <path
       d="m 120.88872,275.83756 c -0.3544,-1.74196 -4.26401,-14.11291 -14.48044,-15.77415 -10.287693,-1.67184 -7.996191,-8.46899 -7.996191,-8.46899 0,0 1.096201,5.7017 7.493151,2.65792 -7.640381,0.44232 -13.420099,-13.41965 -3.05077,-21.17156 3.13005,-2.33996 2.30471,-4.41663 2.76669,-6.34777 0.44028,-1.83853 3.4651,-3.06628 4.97184,-1.20393 -1.16557,-0.97638 -3.4146,-0.45908 -3.7034,1.46985 -0.3742,2.49783 3.366,3.76042 6.30069,4.67064 3.91151,1.21364 8.29112,7.63813 1.92484,12.61968 2.57605,-8.74504 -10.19189,-8.19468 -9.50624,-0.83041 0.82959,8.91131 15.05851,8.88308 16.10799,19.56853 0.101,1.02136 -0.27558,2.39066 0.29022,3.56373 -0.17271,-1.01122 -0.18499,-2.0855 0.63988,-3.5408 2.08481,-3.67662 4.77034,-5.91647 2.60908,-12.07548 -0.45254,-1.29125 -0.42753,-1.89542 -0.006,-2.91766 -0.3223,1.16159 -0.12741,2.36641 1.36329,3.01909 7.06799,3.09274 13.84764,-2.9988 11.51509,-10.45745 -2.81531,-9.00435 -13.41964,-3.80187 -8.35577,0.10011 -2.88609,-1.40503 -7.30959,1.72034 -3.52739,5.56498 0.18357,0.18654 0.87819,0.48951 1.53695,0.13098 -0.59694,0.40131 -1.04429,0.2721 -1.6771,0.0392 -10.26219,-3.77452 -4.27531,-17.20123 6.77732,-16.8599 3.90111,0.11996 5.77782,1.20173 7.24823,2.16664 2.82097,1.85088 5.50838,0.48863 5.34652,-0.85422 -0.0633,-0.527 -0.68569,-1.24362 -1.5771,-0.73162 0.62572,-0.56316 2.09519,0.026 2.23676,0.9799 0.13826,0.93448 -0.10617,1.83942 -1.00088,2.53532 -1.04052,0.80967 -1.2826,1.54923 -0.68849,2.83563 0.68802,1.48838 2.72895,6.77157 0.61723,12.63203 -3.57174,9.91281 -13.49795,7.02073 -15.55775,14.18435 1.90927,-2.48989 4.5745,-0.082 6.66215,-4.0259 -0.44452,10.1289 -12.17101,5.64613 -15.28077,16.52121"
       style="fill:#e00073;fill-opacity:1;fill-rule:nonzero;stroke:none;stroke-width:0.456184" />
  </g>
</svg>
